Coordinates	
version=1	
nRows=436	
nColumns=2	
inDegrees=yes	
	
"Units are S.I. units (second, meters, Newtons, ...)"	
Angles are in degrees.	
	
endheader	
time	transX
66.7	13.31970061
66.75	13.28230374
66.8	13.2447936
66.85	13.21583946
66.9	13.18694111
66.95	13.18956313
67	13.19276769
67.05	13.1553199
67.1	13.11776025
67.15	13.07788802
67.2	13.03782335
67.25	13.00046954
67.3	12.9629804
67.35	12.92486513
67.4	12.88661826
67.45	12.8460681
67.5	12.80535893
67.55	12.76855379
67.6	12.73166719
67.65	12.73108163
67.7	12.73103385
67.75	12.76826976
67.8	12.80666404
67.85	12.85670458
67.9	12.90804279
67.95	12.94332865
68	12.97954512
68.05	13.05515287
68.1	13.13224537
68.15	13.26495289
68.2	13.39998541
68.25	13.45500885
68.3	13.51087948
68.35	13.55892827
68.4	13.60751326
68.45	13.71558507
68.5	13.82511571
68.55	14.00683567
68.6	14.19114644
68.65	14.34949118
68.7	14.50983462
68.75	14.56334144
68.8	14.61683609
68.85	14.68420685
68.9	14.75164252
68.95	14.9446995
69	15.13989746
69.05	15.25100847
69.1	15.36279056
69.15	15.44727556
69.2	15.53178205
69.25	15.64713074
69.3	15.76294293
69.35	15.83199032
69.4	15.90067897
69.45	15.97690441
69.5	16.05283162
69.55	16.16950383
69.6	16.2865508
69.65	16.37630756
69.7	16.46595774
69.75	16.53706235
69.8	16.60768393
69.85	16.68475004
69.9	16.76141576
69.95	16.83562254
70	16.90938541
70.05	16.98312861
70.1	17.05641779
70.15	17.12917211
70.2	17.20145712
70.25	17.27352009
70.3	17.3451041
70.35	17.41513876
70.4	17.48466359
70.45	17.55676899
70.5	17.62840341
70.55	17.69324759
70.6	17.75750478
70.65	17.82563017
70.7	17.89322901
70.75	18.04182114
70.8	18.19123998
70.85	18.28414223
70.9	18.3769051
70.95	18.43022627
71	18.48264464
71.05	18.5658498
71.1	18.64864596
71.15	18.75939207
71.2	18.87021659
71.25	18.97472687
71.3	19.07918504
71.35	19.14831237
71.4	19.21674257
71.45	19.26780748
71.5	19.31785073
71.55	19.43149917
71.6	19.54520117
71.65	19.68499963
71.7	19.82530429
71.75	19.91441761
71.8	20.00311546
71.85	20.06318108
71.9	20.12227214
71.95	20.17824895
72	20.23319319
72.05	20.32953951
72.1	20.42557349
72.15	20.49894721
72.2	20.57165148
72.25	20.63163873
72.3	20.69071951
72.35	20.72543881
72.4	20.7588534
72.45	20.72776053
72.5	20.69431752
72.55	20.74271921
72.6	20.79021045
72.65	20.80007479
72.7	20.8085287
72.75	20.84012984
72.8	20.87073587
72.85	20.88360453
72.9	20.89524992
72.95	20.84365038
73	20.78981355
73.05	20.7431881
73.1	20.6945226
73.15	20.59815778
73.2	20.49910578
73.25	20.37387107
73.3	20.24565608
73.35	20.15279305
73.4	20.05773917
73.45	20.02389217
73.5	19.9890847
73.55	19.86195884
73.6	19.73247111
73.65	19.49557811
73.7	19.25461306
73.75	19.22805085
73.8	19.20120831
73.85	18.95067381
73.9	18.69640788
73.95	18.46468375
74	18.22966406
74.05	18.06860662
74.1	17.90581093
74.15	17.74295539
74.2	17.57861747
74.25	17.48347791
74.3	17.38816037
74.35	17.24681894
74.4	17.1046559
74.45	16.93052027
74.5	16.75507496
74.55	16.53149781
74.6	16.30591705
74.65	16.10175831
74.7	15.89610799
74.75	15.68245644
74.8	15.46737914
74.85	15.18927285
74.9	14.90885399
74.95	14.70995569
75	14.5102852
75.05	14.32118181
75.1	14.13170814
75.15	13.86730903
75.2	13.60140085
75.25	13.3234699
75.3	13.04394153
75.35	12.81407174
75.4	12.58363329
75.45	12.37738738
75.5	12.17116651
75.55	11.96223066
75.6	11.75338668
75.65	11.51375738
75.7	11.27378417
75.75	10.9847125
75.8	10.69456406
75.85	10.43243546
75.9	10.16982954
75.95	9.989712662
76	9.810670738
76.05	9.627161354
76.1	9.444762551
76.15	9.190853104
76.2	8.936866868
76.25	8.805432562
76.3	8.675994536
76.35	8.494868983
76.4	8.314961281
76.45	8.134101493
76.5	7.954386784
76.55	7.875202335
76.6	7.7988495
76.65	7.770822294
76.7	7.746416482
76.75	7.719354738
76.8	7.695719728
76.85	7.675737568
76.9	7.659044348
76.95	7.646588356
77	7.637308545
77.05	7.628832704
77.1	7.623369369
77.15	7.627937079
77.2	7.635513404
77.25	7.700911309
77.3	7.770117568
77.35	7.906459332
77.4	8.047546407
77.45	8.117050695
77.5	8.189847232
77.55	8.244534763
77.6	8.301906616
77.65	8.423220375
77.7	8.548089612
77.75	8.833634866
77.8	9.125235156
77.85	9.381162348
77.9	9.642259405
77.95	9.627532391
78	9.612918492
78.05	9.80692176
78.1	10.00420388
78.15	10.13129385
78.2	10.26047979
78.25	10.42433769
78.3	10.59062036
78.35	10.78200565
78.4	10.97607581
78.45	11.06595605
78.5	11.15658579
78.55	11.22833312
78.6	11.30032591
78.65	11.33654522
78.7	11.37236785
78.75	11.52234587
78.8	11.67381852
78.85	11.80491469
78.9	11.93716604
78.95	12.01290661
79	12.08872541
79.05	12.18399724
79.1	12.27958437
79.15	12.39872503
79.2	12.51855446
79.25	12.67535125
79.3	12.83340355
79.35	12.88853111
79.4	12.94311227
79.45	13.07740412
79.5	13.2123793
79.55	13.3585061
79.6	13.50551229
79.65	13.61606628
79.7	13.72680001
79.75	13.90303089
79.8	14.08044228
79.85	14.15789933
79.9	14.23481131
79.95	14.60845665
80	14.98639323
80.05	15.10017589
80.1	15.21378379
80.15	15.16751547
80.2	15.11805777
80.25	15.27509234
80.3	15.43241782
80.35	15.61070898
80.4	15.78981408
80.45	15.93205719
80.5	16.07440308
80.55	16.21421568
80.6	16.35398188
80.65	16.50121032
80.7	16.64846155
80.75	16.77476542
80.8	16.90069151
80.85	16.99039936
80.9	17.07907351
80.95	17.18796842
81	17.29615262
81.05	17.47866929
81.1	17.66173899
81.15	17.77209256
81.2	17.88176445
81.25	17.97812905
81.3	18.0734975
81.35	18.14768068
81.4	18.22051987
81.45	18.2804778
81.5	18.33890361
81.55	18.43116474
81.6	18.52251152
81.65	18.57054413
81.7	18.61699684
81.75	18.62395983
81.8	18.62870777
81.85	18.62979468
81.9	18.62869072
81.95	18.61296823
82	18.59494011
82.05	18.52110299
82.1	18.44415914
82.15	18.35840184
82.2	18.26954509
82.25	18.25386014
82.3	18.23651039
82.35	18.13291835
82.4	18.02641616
82.45	17.97350272
82.5	17.91868677
82.55	17.87106308
82.6	17.82185488
82.65	17.74945861
82.7	17.67520977
82.75	17.64013891
82.8	17.60397743
82.85	17.56038693
82.9	17.51570206
82.95	17.50316582
83	17.49013815
83.05	17.51891925
83.1	17.54796934
83.15	17.57991666
83.2	17.6121905
83.25	17.66394764
83.3	17.71631332
83.35	17.79141104
83.4	17.8674478
83.45	17.90354043
83.5	17.93983146
83.55	18.00872977
83.6	18.07828359
83.65	18.20743569
83.7	18.33819599
83.75	18.40211427
83.8	18.46643262
83.85	18.55157123
83.9	18.63731478
83.95	18.80170826
84	18.96796069
84.05	19.00751712
84.1	19.04672061
84.15	19.0820829
84.2	19.11687342
84.25	19.26253295
84.3	19.40947976
84.35	19.57567657
84.4	19.74346603
84.45	19.84122986
84.5	19.93926382
84.55	19.9798105
84.6	20.01951955
84.65	20.07484089
84.7	20.12954632
84.75	20.26874779
84.8	20.40877156
84.85	20.43553965
84.9	20.46122786
84.95	20.52164496
85	20.58147534
85.05	20.63342332
85.1	20.68470188
85.15	20.64306725
85.2	20.59921992
85.25	20.60692002
85.3	20.61330691
85.35	20.57752499
85.4	20.53986424
85.45	20.46524123
85.5	20.38820055
85.55	20.27415259
85.6	20.15720442
85.65	20.01531161
85.7	19.87028428
85.75	19.73880754
85.8	19.60464452
85.85	19.50254681
85.9	19.39853261
85.95	19.29196577
86	19.18363528
86.05	19.03695712
86.1	18.8880212
86.15	18.72822231
86.2	18.5661348
86.25	18.40284897
86.3	18.23744581
86.35	18.07681883
86.4	17.9143476
86.45	17.73896172
86.5	17.56169849
86.55	17.30501004
86.6	17.04528964
86.65	16.84403303
86.7	16.64091606
86.75	16.49912095
86.8	16.35675406
86.85	16.18989688
86.9	16.02222183
86.95	15.75940321
87	15.49426557
87.05	15.18679438
87.1	14.87643528
87.15	14.67990123
87.2	14.48263358
87.25	14.30177512
87.3	14.12071876
87.35	13.85627479
87.4	13.59034599
87.45	13.33897913
87.5	13.0864707
87.55	12.89621878
87.6	12.70605623
87.65	12.50110178
87.7	12.29613727
87.75	12.09386719
87.8	11.89169883
87.85	11.68979184
87.9	11.48807203
87.95	11.28624754
88	11.08468219
88.05	10.88344443
88.1	10.68254105
88.15	10.48238732
88.2	10.2826469
88.25	10.08259512
88.3	9.883014041
88.35	9.68388512
88.4	9.485293145
88.45	9.294318104
